<?xml version="1.0" encoding="UTF-8"?>
<svg id="Layer_1" data-name="Layer 1" xmlns="http://www.w3.org/2000/svg" viewBox="0 0 1080 450">
  <defs>
    <style>
      .cls-1 {
        fill: #df2528;
      }
    </style>
  </defs>
  <g>
    <path class="cls-1" d="M313.29,117.05c-2.48-4.98-15.64-30.14-44.66-38.42-5.95-1.7-29.77-8.49-49.46,5.28-15.63,10.93-20.17,28.87-21.61,34.57-2.16,8.52-2.04,15.43-1.92,20.17.25,10.14.56,23.13,9.12,36.02,2.34,3.53,10.78,15.29,26.41,20.65,7.86,2.7,14.02,2.57,22.57,2.4,20.3-.41,35.32-6.78,41.3-9.6,5.48-2.59,13.06-6.79,21.13-13.45,2.88,1.76,5.76,3.52,8.64,5.28-1.84,1.6-4.45,3.79-7.68,6.24,0,0-9.12,6.91-17.77,11.52-14.66,7.83-34.21,9.11-42.74,9.6-14.06.82-31.58,1.83-52.82-5.28-13.89-4.65-30.95-10.37-43.22-27.37-3.19-4.41-14.36-20.42-12.01-42.26,2.1-19.47,13.69-31.78,18.73-36.98,13.8-14.24,29.87-18.6,42.74-22.09,14.94-4.05,27.59-4.25,34.57-4.32,11.02-.11,17.14-.16,25.45,1.92,7.68,1.93,15.38,3.81,23.05,5.76,4.17,1.06,7.88,2.02,12.01.48,4.71-1.75,7.37-5.79,8.64-8.16h6.24c.16,15.85.32,31.69.48,47.54-2.4.16-4.8.32-7.2.48Z"/>
    <path class="cls-1" d="M524.1,198.2c-3.38-1.44-5.57-3.52-6.72-4.8-25.61-41.78-51.22-83.56-76.83-125.33h-7.68c-23.69,40.18-47.38,80.35-71.07,120.53-.75,1.28-2.71,4.21-6.24,6.72-4.2,2.98-8.79,4.01-12.49,4.32-.16,1.92-.32,3.84-.48,5.76,19.53-.16,39.05-.32,58.58-.48v-4.8c-6.68.12-11.9-.95-15.37-1.92-5.9-1.65-7.45-3.25-8.16-4.8-.99-2.16-.45-4.46,0-5.76l11.52-21.61c20.81.16,41.62.32,62.43.48,3.2,5.92,6.4,11.85,9.6,17.77,2.45,2.59,3.2,6.34,1.92,9.6-1.37,3.49-4.82,5.8-8.64,5.76-4-.02-8-.05-12.01-.07v6.31c30.41-.32,60.83-.64,91.24-.96v-5.28c-1.78.19-5.47.32-9.6-1.44ZM393,158.35l26.65-46.1,26.65,46.1h-53.3Z"/>
    <path class="cls-1" d="M731.07,134.82c-1.19-19.94-12.3-32.94-15.85-36.98-15.77-17.93-37.39-21.91-51.38-24.49-7.98-1.47-14.79-1.86-19.69-1.92h-102.77v5.76h10.58c3.37,0,8.71.56,12,4.32,2.37,2.71,2.75,6.01,2.88,7.68.69,8.62.74,46.46,0,97.96-.34,1.82-1.28,5.4-4.32,8.16-2.98,2.7-6.42,3.22-10.56,3.84-2.48.37-6.13.65-10.56,0-.16,2.08-.32,4.16-.48,6.24,34.09-.32,68.19-.64,102.28-.96,8.09-.17,20.22-1.22,34.09-5.76,14.54-4.76,34.1-11.15,45.62-30.25,8.76-14.53,8.44-29.06,8.16-33.61ZM674.4,178.03c-6.69,8.11-15.27,12.1-18.25,13.45-8.16,3.69-15.55,4.6-20.17,4.8h-16.33c-.53-.02-3.22-.17-5.28-2.4-2.39-2.58-1.98-5.81-1.92-6.24-.07-3.87-1.58-95.34,0-101.8.68-2.79,2.4-4.32,2.4-4.32,1.6-1.43,3.56-1.81,4.8-1.92h19.21c1.91.2,4.58.6,7.68,1.44,0,0,12.71,3.44,22.57,12.97,15.42,14.9,15.38,37.44,15.37,47.06-.02,10.27-.04,24.79-10.08,36.98Z"/>
    <path class="cls-1" d="M931.42,134.78c-1.19-19.94-12.3-32.94-15.85-36.98-15.77-17.93-37.39-21.91-51.38-24.49-7.98-1.47-14.79-1.86-19.69-1.92h-102.77v5.76h10.58c3.37,0,8.71.56,12.01,4.32,2.37,2.71,2.75,6.01,2.88,7.68.69,8.62.74,46.46,0,97.96-.34,1.82-1.28,5.4-4.32,8.16-2.98,2.7-6.42,3.22-10.56,3.84-2.48.37-6.13.65-10.56,0-.16,2.08-.32,4.16-.48,6.24,34.09-.32,68.19-.64,102.28-.96,8.09-.17,20.22-1.22,34.09-5.76,14.54-4.76,34.1-11.16,45.62-30.25,8.76-14.53,8.44-29.05,8.16-33.61ZM874.75,178c-6.69,8.11-15.27,12.1-18.25,13.45-8.16,3.69-15.55,4.6-20.17,4.8h-16.33c-.53-.02-3.22-.17-5.28-2.4-2.39-2.58-1.98-5.81-1.92-6.24-.07-3.87-1.58-95.34,0-101.8.68-2.79,2.4-4.32,2.4-4.32,1.6-1.43,3.56-1.81,4.8-1.92h19.21c1.91.2,4.58.6,7.68,1.44,0,0,12.71,3.44,22.57,12.97,15.42,14.9,15.38,37.45,15.37,47.06-.02,10.27-.04,24.79-10.08,36.98Z"/>
    <path class="cls-1" d="M260.14,246.73c-1.72-2.79-10.87-16.88-31.04-21.51-4.13-.95-20.69-4.75-34.37,2.96-10.86,6.12-14.02,16.17-15.02,19.36-1.5,4.77-1.42,8.64-1.33,11.29.17,5.68.39,12.95,6.34,20.17,1.63,1.98,7.49,8.56,18.35,11.56,5.46,1.51,9.75,1.44,15.68,1.34,14.11-.23,24.55-3.8,28.7-5.38,3.81-1.45,9.08-3.8,14.68-7.53,2,.99,4,1.97,6.01,2.96-1.28.9-3.09,2.12-5.34,3.5,0,0-6.34,3.87-12.35,6.45-10.19,4.38-23.77,5.1-29.7,5.38-9.77.46-21.94,1.03-36.71-2.96-9.65-2.61-21.51-5.81-30.03-15.33-2.21-2.47-9.98-11.43-8.34-23.66,1.46-10.9,9.51-17.8,13.02-20.71,9.59-7.97,20.76-10.41,29.7-12.37,10.38-2.27,19.17-2.38,24.03-2.42,7.66-.06,11.91-.09,17.69,1.08,5.34,1.08,10.69,2.13,16.02,3.23,2.9.59,5.48,1.13,8.34.27,3.27-.98,5.12-3.24,6.01-4.57h4.34c.11,8.87.22,17.75.33,26.62-1.67.09-3.34.18-5.01.27Z"/>
    <path class="cls-1" d="M279.19,220.77h112.85v23.05h-5.28c-.47-1.98-1.47-5.09-3.84-8.16-.76-.98-3.58-4.46-10.08-7.2-4.26-1.8-8.26-2.5-18.25-2.88-5.37-.2-12.38-.31-20.65,0-.62.1-2.34.45-3.84,1.92-1.32,1.28-1.77,2.73-1.92,3.36v24.49c4.8,0,9.6.01,14.41.02,1.96-.17,5.27-.75,8.64-2.9,6.68-4.27,8.32-11.39,8.64-12.97h4.8v37.46h-5.3c-.26-1.97-1-5.32-3.34-8.65-4.6-6.53-11.82-7.9-13.45-8.16-4.8-.16-9.6-.32-14.41-.48,0,8.81,0,17.61,0,26.42.22.74.73,2.09,1.93,3.36,1.64,1.72,3.56,2.24,4.32,2.4h26.89c3.62-.3,8.1-1.07,12.97-2.88,11.61-4.32,18.72-12.05,22.09-16.33,1.44.32,2.88.64,4.32.96-2.56,7.52-5.12,15.05-7.68,22.57h-113.81v-3.36h9.6c.52,0,3.88-.1,6.24-2.88,1.82-2.15,1.92-4.58,1.92-5.28v-54.26c-.26-.83-.89-2.43-2.4-3.84-2.27-2.13-4.97-2.36-5.76-2.4h-9.6v-3.36Z"/>
    <path class="cls-1" d="M407.41,220.77h42.26c22.57,15.85,45.14,31.69,67.71,47.54v-35.53c-.19-.92-.81-3.24-2.88-5.28-2.26-2.23-4.86-2.74-5.76-2.88h-8.64v-3.84c14.25,0,28.49,0,42.74,0v3.36h-8.64c-1.05.26-3.57,1.04-5.76,3.36-1.92,2.04-2.62,4.23-2.88,5.28v65.31h-5.28c-28.65-20.17-57.3-40.34-85.96-60.51v48.98c.55.96,1.59,2.49,3.36,3.84,2.07,1.59,4.14,2.17,5.28,2.4h8.64v3.84h-43.7c0-1.28,0-2.56,0-3.84h10.09c1.13-.37,3.34-1.25,5.28-3.36,1.31-1.41,2.02-2.86,2.4-3.84v-53.78c-4.48-2.56-8.96-5.12-13.45-7.68h-4.8v-3.36Z"/>
    <path class="cls-1" d="M548.59,220.77h117.65v23.53h-5.3c-.57-2.5-1.74-5.89-4.3-9.13-7.55-9.56-20.35-9.2-22.09-9.12h-11.04v61.95c.75.75,1.7,1.59,2.88,2.4,1.78,1.21,3.47,1.95,4.8,2.4h10.1v3.87h-66.76v-3.87h10.56c1.14-.41,2.72-1.13,4.32-2.4,1.03-.82,1.82-1.67,2.4-2.4v-61.95h-12.01c-1.65-.05-11.23-.2-18.25,7.2-3.91,4.12-5.26,8.72-5.76,11.04h-7.2v-23.53Z"/>
    <path class="cls-1" d="M803.58,292.8c-1.88-.51-3.33-1.29-4.32-1.92-12.01-10.4-24.01-20.81-36.02-31.21,1.68-.26,4.19-.7,7.2-1.44,7.25-1.79,11.26-2.78,14.89-5.76,1.23-1.01,7.21-5.94,6.72-12.49-.42-5.67-5.45-9.25-8.64-11.52-6.3-4.49-12.91-5.44-22.57-6.72-5.29-.7-9.65-.9-12.48-.96h-73.95c0,1.28,0,2.56-.01,3.84,4.66-.72,8.29-.39,10.58,0,2.35.4,3.67.91,4.8,1.92,1.85,1.65,2.29,3.7,2.4,4.32v56.18c-.36.82-1.06,2.14-2.4,3.36-1.86,1.69-3.87,2.22-4.8,2.4h-11.04v3.84h67.24v-3.84h-11.06c-1.02-.32-2.69-.98-4.32-2.4-1.17-1.02-1.93-2.09-2.4-2.88v-25.93h4.8c13.92,11.52,27.85,23.05,41.77,34.57h39.38v-2.88c-1.32.13-3.38.17-5.76-.48ZM739.23,257.27h-15.85v-27.85c.07-.35.36-1.5,1.44-2.4,1.21-1,2.56-.97,2.88-.96h15.85c8.34,1.29,14.31,8.15,14.41,15.37.11,8.71-8.34,16.84-18.73,15.85Z"/>
    <path class="cls-1" d="M813.06,221.17h112.85v23.05h-5.28c-.47-1.98-1.47-5.09-3.84-8.16-.76-.98-3.58-4.46-10.08-7.2-4.26-1.8-8.26-2.5-18.25-2.88-5.37-.2-12.38-.31-20.65,0-.62.1-2.34.45-3.84,1.92-1.32,1.28-1.77,2.73-1.92,3.36v24.49c4.8,0,9.6.01,14.41.02,1.96-.17,5.27-.75,8.64-2.9,6.68-4.27,8.32-11.39,8.64-12.97h4.8v37.46h-5.3c-.26-1.97-1-5.32-3.34-8.65-4.6-6.53-11.82-7.9-13.45-8.16-4.8-.16-9.6-.32-14.41-.48,0,8.81,0,17.61,0,26.42.22.74.73,2.09,1.93,3.36,1.64,1.72,3.56,2.24,4.32,2.4h26.89c3.62-.3,8.1-1.07,12.97-2.88,11.61-4.32,18.72-12.05,22.09-16.33,1.44.32,2.88.64,4.32.96-2.56,7.52-5.12,15.05-7.68,22.57h-113.81v-3.36h9.6c.52,0,3.88-.1,6.24-2.88,1.82-2.15,1.92-4.58,1.92-5.28v-54.26c-.26-.83-.89-2.43-2.4-3.84-2.27-2.13-4.97-2.36-5.76-2.4h-9.6v-3.36Z"/>
  </g>
  <g>
    <g>
      <path d="M312.19,327.96l-15.08,52.04h-7.61l-12.1-41.89-12.54,41.89-7.54.08-14.56-52.11h7.24l11.35,44.13,12.54-44.13h7.62l11.95,43.98,11.42-43.98h7.32Z"/>
      <path d="M256.35,381.35l-15.27-54.67h9.9l10.42,40.53,11.53-40.53h9.55l10.94,40.3,10.47-40.3h9.99l-15.82,54.58h-9.53l-11.16-38.66-11.58,38.65-9.45.09ZM244.43,329.23l13.85,49.56,5.63-.05,13.51-45.13,13.03,45.12h5.7l14.34-49.5h-4.64l-12.37,47.65-12.95-47.65h-5.69l-13.56,47.72-12.28-47.72h-4.58Z"/>
    </g>
    <g>
      <path d="M340.83,378.05c-3.11-1.74-5.55-4.22-7.32-7.43-1.77-3.21-2.65-6.93-2.65-11.16s.91-7.87,2.73-11.09c1.82-3.21,4.29-5.67,7.43-7.39,3.13-1.72,6.64-2.58,10.53-2.58s7.39.86,10.53,2.58c3.13,1.72,5.61,4.17,7.43,7.35,1.82,3.18,2.72,6.9,2.72,11.12s-.93,7.96-2.8,11.16c-1.87,3.21-4.4,5.69-7.58,7.43-3.18,1.74-6.72,2.61-10.6,2.61s-7.3-.87-10.41-2.61ZM358.11,372.97c2.14-1.14,3.87-2.86,5.19-5.15,1.32-2.29,1.98-5.08,1.98-8.36s-.65-6.07-1.94-8.36c-1.29-2.3-2.99-4-5.08-5.12-2.09-1.12-4.36-1.68-6.79-1.68s-4.77.56-6.83,1.68c-2.07,1.12-3.72,2.82-4.96,5.12-1.24,2.29-1.87,5.08-1.87,8.36s.61,6.15,1.83,8.44c1.22,2.29,2.85,3.99,4.89,5.12,2.04,1.12,4.28,1.68,6.72,1.68s4.73-.58,6.87-1.72Z"/>
      <path d="M351.24,381.93c-4.04,0-7.75-.93-11.03-2.77-3.31-1.85-5.93-4.51-7.81-7.93-1.87-3.39-2.81-7.35-2.81-11.77s.97-8.31,2.89-11.71c1.93-3.4,4.59-6.05,7.92-7.88,3.32-1.81,7.06-2.74,11.14-2.74s7.82.92,11.14,2.74c3.34,1.83,6,4.47,7.92,7.84,1.92,3.35,2.89,7.3,2.89,11.75s-1,8.41-2.97,11.8c-1.98,3.41-4.7,6.07-8.07,7.91-3.36,1.83-7.13,2.76-11.21,2.76ZM351.54,339.68c-3.64,0-6.98.81-9.92,2.43-2.91,1.59-5.24,3.91-6.93,6.89-1.7,3.01-2.57,6.53-2.57,10.46s.84,7.54,2.49,10.55c1.65,2.99,3.94,5.32,6.83,6.93h0c5.86,3.28,13.89,3.24,19.79,0,2.96-1.61,5.35-3.95,7.09-6.95,1.74-2.99,2.62-6.53,2.62-10.52s-.86-7.53-2.55-10.49c-1.69-2.96-4.02-5.28-6.93-6.87-2.94-1.61-6.27-2.42-9.92-2.42ZM351.24,375.97c-2.64,0-5.1-.62-7.33-1.83-2.26-1.25-4.08-3.14-5.4-5.64-1.31-2.46-1.98-5.49-1.98-9.03s.68-6.5,2.02-8.96c1.35-2.5,3.19-4.39,5.47-5.63,4.46-2.41,10.24-2.46,14.83,0,2.3,1.24,4.18,3.13,5.58,5.61,1.39,2.47,2.1,5.49,2.1,8.98s-.72,6.52-2.14,9c-1.44,2.49-3.36,4.38-5.69,5.63-2.32,1.24-4.83,1.87-7.47,1.87ZM351.47,345.58c-2.29,0-4.33.5-6.23,1.52-1.86,1.01-3.32,2.52-4.45,4.61-1.14,2.09-1.71,4.7-1.71,7.75s.57,5.75,1.68,7.84c1.11,2.08,2.54,3.59,4.38,4.61,3.68,2.02,8.48,2.03,12.37-.05h0c1.92-1.02,3.49-2.59,4.69-4.66,1.2-2.08,1.81-4.69,1.81-7.73s-.6-5.65-1.78-7.73c-1.17-2.06-2.7-3.62-4.57-4.63-1.9-1.01-3.99-1.52-6.19-1.52Z"/>
    </g>
    <g>
      <path d="M402.8,340.28c2.22-1.29,4.92-1.94,8.1-1.94v7.02h-1.79c-7.62,0-11.42,4.13-11.42,12.4v22.25h-6.79v-40.91h6.79v6.64c1.19-2.34,2.9-4.16,5.11-5.45Z"/>
      <path d="M398.96,381.27h-9.34v-43.45h9.34v3.91c.93-.99,2-1.84,3.2-2.54h0c2.41-1.4,5.35-2.12,8.74-2.12h1.27v9.57h-3.06c-6.93,0-10.16,3.53-10.16,11.12v23.52ZM392.16,378.73h4.25v-20.98c0-8.94,4.39-13.67,12.7-13.67h.52v-4.44c-2.39.15-4.47.73-6.19,1.73h0c-2.02,1.18-3.53,2.79-4.62,4.93l-2.4,4.69v-10.64h-4.25v38.37Z"/>
    </g>
    <g>
      <path d="M436.37,324.75v55.24h-6.79v-55.24h6.79Z"/>
      <path d="M437.64,381.27h-9.34v-57.79h9.34v57.79ZM430.84,378.73h4.25v-52.71h-4.25v52.71Z"/>
    </g>
    <g>
      <path d="M457.58,348.37c1.69-3.16,4.02-5.61,6.98-7.35,2.96-1.74,6.28-2.61,9.97-2.61,3.18,0,6.14.73,8.88,2.2,2.74,1.47,4.83,3.4,6.27,5.78v-21.65h6.87v55.24h-6.87v-7.69c-1.34,2.44-3.33,4.44-5.97,6.01-2.64,1.56-5.73,2.35-9.26,2.35s-6.93-.89-9.89-2.69c-2.96-1.79-5.29-4.3-6.98-7.54-1.69-3.24-2.54-6.92-2.54-11.05s.85-7.85,2.54-11.01ZM487.82,351.4c-1.24-2.29-2.92-4.04-5.04-5.26-2.12-1.22-4.44-1.83-6.98-1.83s-4.85.59-6.95,1.79c-2.09,1.2-3.76,2.94-5,5.23-1.24,2.3-1.87,4.98-1.87,8.06s.62,5.86,1.87,8.18c1.24,2.31,2.91,4.08,5,5.3,2.09,1.22,4.41,1.83,6.95,1.83s4.86-.61,6.98-1.83c2.12-1.22,3.79-2.99,5.04-5.3,1.24-2.32,1.87-5.02,1.87-8.11s-.63-5.77-1.87-8.06Z"/>
      <path d="M474.46,381.93c-3.86,0-7.41-.96-10.55-2.87-3.14-1.9-5.65-4.6-7.45-8.04-1.78-3.42-2.68-7.33-2.68-11.65s.9-8.26,2.69-11.61h0c1.81-3.37,4.32-6.01,7.46-7.85,3.16-1.85,6.73-2.79,10.61-2.79,3.38,0,6.57.79,9.48,2.35,1.69.91,3.16,1.99,4.4,3.24v-19.25h9.41v57.79h-9.41v-5.08c-1.14,1.22-2.5,2.29-4.05,3.22-2.84,1.67-6.17,2.52-9.91,2.52ZM458.7,348.97h0c-1.58,2.97-2.39,6.48-2.39,10.41s.8,7.42,2.39,10.47c1.58,3.01,3.77,5.39,6.51,7.04,2.74,1.66,5.85,2.5,9.24,2.5s6.17-.73,8.61-2.17c2.42-1.44,4.28-3.31,5.5-5.53l2.38-4.32v11.35h4.32v-52.71h-4.32v24.93l-2.36-3.9c-1.32-2.18-3.27-3.98-5.79-5.33-5.48-2.95-12.47-2.64-17.6.39-2.74,1.6-4.92,3.91-6.51,6.85ZM475.8,375.97c-2.75,0-5.31-.68-7.59-2.01-2.27-1.32-4.11-3.27-5.48-5.79-1.34-2.5-2.02-5.46-2.02-8.79s.68-6.2,2.02-8.67c1.35-2.49,3.2-4.41,5.48-5.72,4.58-2.6,10.6-2.61,15.19.04,2.31,1.33,4.17,3.26,5.52,5.75h0c1.35,2.48,2.03,5.4,2.03,8.67s-.68,6.2-2.02,8.71c-1.36,2.52-3.22,4.47-5.53,5.8-2.29,1.33-4.85,2-7.6,2ZM475.8,345.58c-2.3,0-4.43.55-6.32,1.62-1.9,1.09-3.38,2.64-4.51,4.73-1.14,2.09-1.71,4.6-1.71,7.46s.58,5.46,1.72,7.58c1.13,2.1,2.65,3.71,4.52,4.8,1.92,1.12,3.98,1.66,6.31,1.66s4.43-.56,6.34-1.66c1.9-1.09,3.43-2.7,4.56-4.8,1.14-2.13,1.72-4.66,1.72-7.51s-.58-5.36-1.72-7.46h0c-1.12-2.07-2.66-3.67-4.55-4.76-1.92-1.1-4.05-1.66-6.34-1.66Z"/>
    </g>
    <g>
      <path d="M516.57,379.09c-.9-.89-1.34-1.99-1.34-3.28s.45-2.39,1.34-3.29c.9-.89,1.99-1.34,3.28-1.34s2.3.45,3.17,1.34c.87.9,1.31,2,1.31,3.29s-.43,2.39-1.31,3.28c-.87.9-1.93,1.34-3.17,1.34s-2.39-.44-3.28-1.34Z"/>
      <path d="M519.86,381.71c-1.64,0-3.05-.58-4.18-1.72-1.14-1.14-1.72-2.54-1.72-4.18s.58-3.04,1.71-4.19c2.28-2.24,5.99-2.3,8.27,0,1.11,1.15,1.67,2.56,1.67,4.18s-.56,3.03-1.66,4.16c-1.11,1.15-2.49,1.73-4.09,1.73ZM519.86,372.45c-.95,0-1.73.32-2.39.97-.66.66-.97,1.42-.97,2.39s.32,1.73.97,2.38h0c1.27,1.3,3.34,1.37,4.64.02.64-.66.95-1.44.95-2.4s-.31-1.75-.95-2.41c-.63-.64-1.37-.95-2.25-.95Z"/>
    </g>
    <g>
      <path d="M573.52,340.23c2.29-4.05,5.41-7.23,9.37-9.52,3.96-2.29,8.35-3.43,13.18-3.43,5.67,0,10.63,1.37,14.85,4.11,4.23,2.74,7.32,6.62,9.26,11.64h-8.13c-1.44-3.14-3.52-5.55-6.24-7.25-2.71-1.69-5.96-2.54-9.74-2.54s-6.9.85-9.78,2.54c-2.89,1.69-5.15,4.1-6.79,7.2-1.64,3.11-2.46,6.76-2.46,10.94s.82,7.75,2.46,10.86c1.64,3.11,3.91,5.51,6.79,7.2,2.88,1.69,6.14,2.54,9.78,2.54s7.03-.83,9.74-2.5c2.71-1.66,4.79-4.07,6.24-7.2h8.13c-1.94,4.98-5.03,8.82-9.26,11.54-4.23,2.71-9.18,4.07-14.85,4.07-4.83,0-9.22-1.13-13.18-3.4-3.96-2.26-7.08-5.41-9.37-9.44-2.29-4.03-3.44-8.58-3.44-13.66s1.14-9.65,3.44-13.71Z"/>
      <path d="M596.06,381.71c-5.04,0-9.68-1.2-13.81-3.57-4.14-2.36-7.45-5.7-9.84-9.92-2.39-4.2-3.6-9.01-3.6-14.28s1.21-10.1,3.6-14.33h0c2.4-4.24,5.71-7.6,9.84-9.99,4.13-2.39,8.78-3.6,13.81-3.6,5.9,0,11.13,1.45,15.55,4.31,4.44,2.87,7.72,6.99,9.75,12.26l.67,1.73h-10.8l-.34-.74c-1.33-2.89-3.26-5.15-5.75-6.7-2.5-1.55-5.55-2.34-9.07-2.34s-6.46.79-9.14,2.36c-2.66,1.56-4.79,3.81-6.31,6.7-1.53,2.91-2.31,6.39-2.31,10.35s.78,7.36,2.31,10.27c1.53,2.89,3.65,5.14,6.31,6.7,2.67,1.57,5.74,2.36,9.14,2.36s6.58-.78,9.08-2.31c2.48-1.52,4.41-3.76,5.74-6.65l.34-.74h10.81l-.67,1.73c-2.03,5.21-5.31,9.29-9.76,12.14-4.42,2.83-9.64,4.27-15.54,4.27ZM574.62,340.86h0c-2.17,3.85-3.27,8.24-3.27,13.08s1.1,9.21,3.27,13.03c2.16,3.81,5.15,6.83,8.9,8.96,3.73,2.14,7.95,3.23,12.54,3.23,5.4,0,10.17-1.3,14.17-3.87,3.48-2.23,6.17-5.32,8.01-9.19h-5.41c-1.53,3-3.66,5.36-6.36,7.01-2.9,1.79-6.41,2.69-10.41,2.69s-7.37-.91-10.42-2.71c-3.07-1.8-5.52-4.39-7.27-7.7-1.73-3.28-2.61-7.14-2.61-11.46s.88-8.25,2.61-11.54c1.75-3.32,4.2-5.91,7.28-7.71,3.07-1.8,6.58-2.71,10.42-2.71s7.5.92,10.41,2.73c2.7,1.68,4.83,4.06,6.36,7.05h5.42c-1.85-3.93-4.54-7.06-8.03-9.31-4-2.59-8.77-3.91-14.17-3.91-4.58,0-8.79,1.1-12.54,3.27-3.73,2.15-6.73,5.2-8.9,9.04Z"/>
    </g>
    <g>
      <path d="M646.24,324.75v55.24h-6.79v-55.24h6.79Z"/>
      <path d="M647.51,381.27h-9.34v-57.79h9.34v57.79ZM640.71,378.73h4.25v-52.71h-4.25v52.71Z"/>
    </g>
    <g>
      <path d="M668.05,348.37c1.69-3.16,4.02-5.61,6.98-7.35,2.96-1.74,6.26-2.61,9.89-2.61s6.69.78,9.33,2.32c2.63,1.54,4.6,3.48,5.9,5.82v-7.46h6.87v40.91h-6.87v-7.61c-1.34,2.39-3.35,4.37-6.01,5.94-2.66,1.56-5.76,2.35-9.3,2.35s-6.92-.89-9.85-2.69c-2.94-1.79-5.25-4.3-6.95-7.54-1.69-3.24-2.54-6.92-2.54-11.05s.85-7.85,2.54-11.01ZM698.28,351.4c-1.24-2.29-2.92-4.04-5.04-5.26-2.12-1.22-4.44-1.83-6.98-1.83s-4.85.59-6.95,1.79c-2.09,1.2-3.76,2.94-5,5.23-1.24,2.3-1.87,4.98-1.87,8.06s.62,5.86,1.87,8.18c1.24,2.31,2.91,4.08,5,5.3,2.09,1.22,4.41,1.83,6.95,1.83s4.86-.61,6.98-1.83,3.79-2.99,5.04-5.3c1.24-2.32,1.87-5.02,1.87-8.11s-.63-5.77-1.87-8.06Z"/>
      <path d="M684.85,381.93c-3.86,0-7.4-.97-10.52-2.87-3.12-1.9-5.61-4.61-7.41-8.04-1.78-3.42-2.68-7.33-2.68-11.65s.9-8.26,2.69-11.61h0c1.81-3.37,4.32-6.01,7.46-7.85,3.16-1.85,6.7-2.79,10.54-2.79s7.14.84,9.97,2.5c1.53.89,2.86,1.92,3.99,3.09v-4.9h9.41v43.45h-9.41v-5.06c-1.15,1.21-2.52,2.28-4.1,3.21-2.85,1.67-6.19,2.52-9.94,2.52ZM669.16,348.97c-1.58,2.97-2.38,6.47-2.38,10.41s.8,7.42,2.39,10.47c1.58,3.01,3.76,5.39,6.48,7.04,2.72,1.66,5.82,2.5,9.2,2.5s6.19-.73,8.65-2.17c2.45-1.45,4.32-3.29,5.54-5.47l2.38-4.22v11.19h4.32v-38.37h-4.32v11.1l-2.38-4.3c-1.18-2.13-3.01-3.93-5.43-5.34-2.44-1.42-5.37-2.15-8.69-2.15s-6.49.82-9.25,2.44c-2.74,1.61-4.92,3.91-6.51,6.86h0ZM686.27,375.97c-2.75,0-5.31-.68-7.59-2.01-2.27-1.32-4.11-3.27-5.48-5.79-1.34-2.51-2.02-5.47-2.02-8.79s.68-6.19,2.02-8.67c1.35-2.48,3.2-4.41,5.48-5.72,4.57-2.6,10.57-2.61,15.2.04,2.31,1.33,4.16,3.27,5.51,5.75h0c1.35,2.48,2.03,5.4,2.03,8.67s-.68,6.2-2.02,8.71c-1.36,2.52-3.21,4.47-5.52,5.8-2.31,1.33-4.87,2-7.61,2ZM686.27,345.58c-2.3,0-4.43.55-6.32,1.62-1.9,1.09-3.38,2.64-4.51,4.73-1.14,2.1-1.71,4.61-1.71,7.46s.58,5.46,1.72,7.58c1.13,2.1,2.65,3.71,4.52,4.8,3.83,2.23,8.77,2.23,12.65,0,1.89-1.09,3.43-2.7,4.55-4.8,1.14-2.13,1.72-4.66,1.72-7.51s-.58-5.36-1.72-7.46h0c-1.12-2.07-2.65-3.67-4.55-4.76-1.94-1.12-4.02-1.66-6.34-1.66Z"/>
    </g>
    <g>
      <path d="M734.57,379.06c-2.49-1.07-4.45-2.56-5.9-4.48-1.44-1.91-2.24-4.12-2.39-6.6h7.02c.2,2.04,1.16,3.71,2.88,5,1.72,1.29,3.97,1.94,6.75,1.94,2.59,0,4.63-.58,6.12-1.72,1.49-1.14,2.24-2.59,2.24-4.33s-.8-3.12-2.39-3.99c-1.59-.88-4.06-1.73-7.39-2.58-3.04-.79-5.51-1.6-7.43-2.42-1.92-.83-3.56-2.05-4.93-3.66-1.37-1.61-2.05-3.74-2.05-6.38,0-2.1.62-4.01,1.87-5.75,1.24-1.74,3.01-3.12,5.3-4.14,2.29-1.03,4.9-1.54,7.84-1.54,4.53,0,8.18,1.14,10.97,3.44,2.79,2.29,4.28,5.43,4.48,9.41h-6.79c-.15-2.15-1.01-3.86-2.58-5.16-1.57-1.29-3.67-1.94-6.31-1.94-2.44,0-4.38.53-5.82,1.57-1.44,1.04-2.17,2.41-2.17,4.11,0,1.34.43,2.45,1.31,3.32.87.87,1.97,1.56,3.28,2.09,1.32.53,3.15,1.11,5.49,1.75,2.93.8,5.33,1.59,7.17,2.35,1.84.77,3.42,1.93,4.74,3.47,1.32,1.54,2,3.56,2.05,6.04,0,2.24-.63,4.26-1.87,6.05-1.25,1.79-3,3.2-5.27,4.22-2.26,1.02-4.86,1.53-7.8,1.53-3.13,0-5.95-.53-8.44-1.6Z"/>
      <path d="M743.01,381.93c-3.29,0-6.29-.58-8.93-1.71h0c-2.69-1.15-4.84-2.79-6.42-4.88-1.58-2.1-2.48-4.56-2.64-7.29l-.08-1.35h9.52l.11,1.15c.16,1.69.94,3.03,2.37,4.11,1.49,1.12,3.5,1.69,5.99,1.69,2.28,0,4.09-.49,5.35-1.45,1.17-.9,1.74-1.99,1.74-3.33s-.55-2.23-1.73-2.87c-1.45-.8-3.83-1.63-7.09-2.47-3.04-.79-5.59-1.62-7.61-2.48-2.1-.91-3.92-2.26-5.41-4.02-1.56-1.83-2.35-4.25-2.35-7.19,0-2.35.71-4.54,2.11-6.49,1.37-1.92,3.33-3.45,5.82-4.56,2.43-1.09,5.25-1.65,8.35-1.65,4.81,0,8.77,1.26,11.78,3.73,3.05,2.51,4.72,5.99,4.94,10.32l.06,1.34h-9.31l-.08-1.18c-.13-1.79-.82-3.19-2.13-4.27-1.32-1.09-3.17-1.64-5.49-1.64-2.15,0-3.86.45-5.08,1.33-1.12.81-1.64,1.79-1.64,3.08,0,.99.31,1.79.94,2.43.74.74,1.68,1.33,2.85,1.8,1.28.51,3.08,1.09,5.36,1.71,2.98.81,5.44,1.62,7.32,2.41,2.01.83,3.76,2.12,5.22,3.82,1.5,1.77,2.3,4.07,2.35,6.85,0,2.51-.7,4.79-2.08,6.8-1.39,1.99-3.34,3.55-5.8,4.66-2.4,1.09-5.2,1.64-8.32,1.64ZM727.71,369.24c.3,1.69.96,3.22,1.98,4.57,1.31,1.73,3.12,3.11,5.39,4.08h0c2.32.99,4.99,1.5,7.93,1.5,2.75,0,5.2-.48,7.27-1.41,2.04-.91,3.64-2.19,4.76-3.79,1.08-1.57,1.63-3.36,1.63-5.32-.04-2.18-.62-3.89-1.75-5.22-1.19-1.38-2.62-2.44-4.26-3.12-1.78-.74-4.14-1.51-7.01-2.3-2.37-.65-4.26-1.26-5.63-1.8-1.47-.59-2.73-1.38-3.71-2.36-1.12-1.13-1.68-2.55-1.68-4.22,0-2.12.91-3.85,2.7-5.14,1.66-1.2,3.87-1.81,6.57-1.81,2.93,0,5.32.75,7.11,2.23,1.54,1.28,2.51,2.91,2.88,4.86h4.28c-.41-3-1.69-5.35-3.89-7.15-2.54-2.09-5.96-3.15-10.17-3.15-2.74,0-5.21.48-7.32,1.43-2.1.93-3.67,2.14-4.79,3.72-1.1,1.54-1.63,3.18-1.63,5.01,0,2.32.59,4.18,1.75,5.55,1.25,1.48,2.71,2.57,4.47,3.33,1.89.8,4.33,1.6,7.24,2.35,3.51.9,6.03,1.79,7.68,2.7,1.99,1.09,3.05,2.85,3.05,5.1s-.92,3.95-2.74,5.34c-1.72,1.32-4.04,1.98-6.89,1.98-3.05,0-5.58-.74-7.52-2.2-1.68-1.26-2.74-2.85-3.19-4.74h-4.52Z"/>
    </g>
    <g>
      <path d="M785.5,379.06c-2.49-1.07-4.45-2.56-5.9-4.48-1.44-1.91-2.24-4.12-2.39-6.6h7.02c.2,2.04,1.16,3.71,2.88,5,1.72,1.29,3.97,1.94,6.75,1.94,2.59,0,4.63-.58,6.12-1.72,1.49-1.14,2.24-2.59,2.24-4.33s-.8-3.12-2.39-3.99c-1.59-.88-4.06-1.73-7.39-2.58-3.04-.79-5.51-1.6-7.43-2.42-1.92-.83-3.56-2.05-4.93-3.66-1.37-1.61-2.05-3.74-2.05-6.38,0-2.1.62-4.01,1.87-5.75,1.24-1.74,3.01-3.12,5.3-4.14,2.29-1.03,4.9-1.54,7.84-1.54,4.53,0,8.18,1.14,10.97,3.44,2.79,2.29,4.28,5.43,4.48,9.41h-6.79c-.15-2.15-1.01-3.86-2.58-5.16-1.57-1.29-3.67-1.94-6.31-1.94-2.44,0-4.38.53-5.82,1.57-1.44,1.04-2.17,2.41-2.17,4.11,0,1.34.43,2.45,1.31,3.32.87.87,1.97,1.56,3.28,2.09,1.32.53,3.15,1.11,5.49,1.75,2.93.8,5.33,1.59,7.17,2.35,1.84.77,3.42,1.93,4.74,3.47,1.32,1.54,2,3.56,2.05,6.04,0,2.24-.63,4.26-1.87,6.05-1.25,1.79-3,3.2-5.27,4.22-2.26,1.02-4.86,1.53-7.8,1.53-3.13,0-5.95-.53-8.44-1.6Z"/>
      <path d="M793.93,381.93c-3.29,0-6.29-.58-8.93-1.71h0c-2.69-1.15-4.84-2.79-6.42-4.88-1.59-2.11-2.48-4.57-2.64-7.29l-.07-1.35h9.51l.11,1.15c.16,1.69.94,3.03,2.37,4.11,1.49,1.12,3.5,1.69,5.99,1.69,2.28,0,4.09-.49,5.35-1.45,1.17-.9,1.74-1.99,1.74-3.33s-.55-2.23-1.73-2.87c-1.45-.8-3.83-1.63-7.09-2.47-3.04-.79-5.59-1.62-7.61-2.48-2.1-.91-3.92-2.26-5.41-4.02-1.56-1.83-2.35-4.25-2.35-7.19,0-2.35.71-4.54,2.11-6.49,1.37-1.92,3.33-3.45,5.82-4.56,2.43-1.09,5.25-1.65,8.35-1.65,4.81,0,8.77,1.26,11.78,3.73,3.05,2.51,4.72,5.99,4.94,10.32l.06,1.34h-9.31l-.08-1.18c-.12-1.79-.82-3.18-2.13-4.27-1.32-1.09-3.17-1.64-5.49-1.64-2.15,0-3.86.45-5.08,1.33-1.12.8-1.64,1.79-1.64,3.08,0,.99.31,1.79.94,2.43.74.74,1.68,1.33,2.85,1.8,1.28.51,3.08,1.09,5.36,1.71,2.98.81,5.44,1.62,7.32,2.41,2.01.83,3.76,2.12,5.22,3.82,1.5,1.76,2.3,4.06,2.36,6.84,0,2.51-.7,4.79-2.09,6.8-1.39,1.99-3.34,3.55-5.79,4.65-2.41,1.09-5.21,1.64-8.32,1.64ZM778.64,369.24c.29,1.68.95,3.21,1.97,4.57,1.31,1.73,3.12,3.11,5.39,4.08h0c2.32.99,4.99,1.5,7.93,1.5,2.75,0,5.2-.48,7.28-1.41,2.03-.91,3.63-2.19,4.75-3.79,1.09-1.57,1.64-3.37,1.64-5.32-.05-2.18-.62-3.9-1.75-5.22-1.19-1.38-2.62-2.44-4.26-3.12-1.78-.74-4.14-1.51-7.01-2.3-2.37-.65-4.26-1.26-5.63-1.8-1.47-.59-2.73-1.38-3.71-2.36-1.12-1.13-1.68-2.55-1.68-4.22,0-2.12.91-3.85,2.7-5.14,1.66-1.2,3.87-1.81,6.57-1.81,2.93,0,5.32.75,7.11,2.23,1.54,1.28,2.51,2.91,2.89,4.86h4.28c-.41-3-1.69-5.35-3.89-7.15-2.54-2.09-5.96-3.15-10.17-3.15-2.74,0-5.21.48-7.32,1.43-2.1.93-3.67,2.14-4.79,3.72-1.1,1.54-1.63,3.18-1.63,5.01,0,2.32.59,4.18,1.75,5.55,1.25,1.48,2.71,2.57,4.47,3.33,1.89.8,4.33,1.6,7.24,2.35,3.51.9,6.03,1.79,7.68,2.7,1.99,1.09,3.05,2.85,3.05,5.1s-.92,3.95-2.74,5.34c-1.72,1.32-4.04,1.98-6.89,1.98-3.05,0-5.58-.74-7.52-2.2-1.68-1.26-2.74-2.85-3.19-4.74h-4.51Z"/>
    </g>
    <g>
      <path d="M829.48,379.09c-.9-.89-1.34-1.99-1.34-3.28s.45-2.39,1.34-3.29c.9-.89,1.99-1.34,3.28-1.34s2.3.45,3.17,1.34c.87.9,1.31,2,1.31,3.29s-.43,2.39-1.31,3.28c-.87.9-1.93,1.34-3.17,1.34s-2.39-.44-3.28-1.34Z"/>
      <path d="M832.76,381.71c-1.64,0-3.05-.58-4.19-1.72-1.13-1.14-1.71-2.54-1.71-4.18s.58-3.04,1.71-4.18c2.28-2.25,5.99-2.3,8.27,0,1.11,1.15,1.67,2.55,1.67,4.18s-.56,3.04-1.67,4.17c-1.11,1.15-2.48,1.73-4.08,1.73ZM832.76,372.45c-.95,0-1.73.32-2.39.97-.66.66-.96,1.42-.96,2.39s.32,1.73.97,2.38h0c1.27,1.29,3.34,1.37,4.64.01.64-.66.95-1.43.95-2.4s-.3-1.74-.95-2.41c-.64-.65-1.36-.95-2.26-.95Z"/>
    </g>
  </g>
</svg>